<?xml version="1.0" encoding="UTF-8"?>
<svg width="515px" height="171px" viewBox="0 0 515 171" version="1.1" xmlns="http://www.w3.org/2000/svg" xmlns:xlink="http://www.w3.org/1999/xlink">
    <!-- Generator: Sketch 54.1 (76490) - https://sketchapp.com -->
    <title>confetti-logo</title>
    <desc>Created with Sketch.</desc>
    <g id="confetti-logo" stroke="none" stroke-width="1" fill="none" fill-rule="evenodd" transform="translate(-69.000000, -72.000000)">
        <g id="Group-4" transform="translate(69.000000, 72.000000)" fill="#00C2DB" fill-rule="nonzero">
            <path d="M455.759177,79.1746476 C451.60707,91.4003312 444.460554,104.307164 434.554513,116.544503 C429.228801,123.123575 412.784489,130.424674 400.403145,130.718837 C383.417034,131.122403 374.720845,119.895017 379.020382,96.5474531 C380.417506,88.9607153 382.071312,82.1212157 383.920054,76.1069408 C382.610282,75.7970424 381.345936,75.4802327 380.141411,75.1633265 C379.403139,74.9690898 378.739847,74.7885091 378.161215,74.6261351 C377.811238,74.5279257 377.565419,74.457057 377.433459,74.41808 C375.474535,73.8394746 375.540824,71.042393 377.524958,70.5572352 C377.680164,70.5192844 377.971641,70.4494315 378.386471,70.3522282 C379.074597,70.1909859 379.860157,70.0115186 380.730255,69.8183766 C382.562575,69.4116427 384.494227,69.0049803 386.483993,68.6129946 C388.363499,63.6845663 390.389674,59.5084669 392.511973,56.1485341 C397.568256,48.1436437 403.337641,44.9960934 407.235158,49.0333215 C409.982621,51.8792712 410.579583,57.9045819 409.02062,65.8335256 C410.279378,65.8427134 411.429162,65.9060937 412.462813,66.0272525 C417.656364,66.6360115 420.596828,68.9992952 419.130656,73.1641223 C417.582847,77.5608516 412.604134,79.2896033 404.999128,79.1847258 C400.975053,89.4852302 394.547727,101.111399 385.772207,113.445581 C377.542233,125.012986 356.863904,132.324864 338.796965,130.716018 C323.404246,129.345309 313.177833,121.960489 311.2426,109.608138 C310.986941,109.771441 310.725686,109.936617 310.458794,110.103728 C307.342597,112.054893 303.58322,114.200484 298.212705,117.133513 C296.926504,117.835953 286.863884,123.275634 283.840407,124.939141 C275.062077,129.768951 268.66473,133.567862 263.351295,137.236359 C249.954731,146.485601 246.05754,153.155815 251.611311,158.038083 C259.73464,163.613886 265.047061,159.629077 269.400478,145.549834 C272.91635,134.179269 274.79179,121.216736 278.133247,90.1961469 C278.241144,89.1943698 278.241144,89.1943698 278.349123,88.1922045 C282.075088,53.6214501 284.398976,38.743429 289.049028,26.7357599 C296.44411,7.63969524 311.304056,-0.0374050878 323.575042,6.42807249 C335.805467,12.8721797 338.805098,29.8933902 328.643787,47.818503 C321.52039,60.3845677 310.100845,71.5664604 293.82077,83.435247 C288.399072,87.3878689 286.06037,88.9724728 274.296724,96.8021927 C266.443731,102.029036 262.519721,104.78695 259.231566,107.524468 C251.613217,113.867042 251.114132,116.898594 257.720851,120.126803 C257.936761,120.207539 258.129354,120.323666 258.29555,120.465947 C258.822428,120.889571 259.037722,121.494913 259.002815,122.085398 C258.990854,122.452675 258.877808,122.820307 258.648614,123.143103 C258.476579,123.401042 258.246533,123.620569 257.967315,123.773383 L257.967315,123.773383 C250.092105,129.603227 243.271648,130.754968 238.684545,127.357114 C234.629625,124.35347 233.324564,118.291251 235.084348,112.425303 C239.492256,97.7322736 241.171265,89.3034537 240.544257,83.8454847 C239.930474,78.5026408 237.04073,76.2812494 230.193361,76.2812499 C220.50562,76.2812507 215.818305,84.4767819 213.178297,101.390982 C212.922319,103.031003 212.682544,104.747578 212.417094,106.801096 C212.265236,107.975869 211.774522,111.908202 211.756259,112.052498 C210.791795,119.672585 210.085641,123.3369 208.762038,126.079975 C206.734037,130.282868 203.161817,131.099933 198.982009,128.01792 C197.12156,126.646103 196.086041,125.740223 195.342231,124.736353 C193.778606,122.626033 193.787688,120.718059 194.887508,116.611879 C195.003742,116.177919 196.207112,111.912203 196.644339,110.261939 C197.481498,107.10217 198.230683,103.90271 198.956359,100.252594 C199.596579,97.0323239 199.993234,94.0604227 200.193795,91.0839065 C197.08231,95.4448139 192.281579,98.3259899 186.26539,99.5208811 C175.877286,101.58409 163.888201,97.9720586 158.425622,90.9265946 C153.636739,84.7500431 153.805717,76.7214218 158.441425,71.4539053 C163.337278,65.890788 171.617475,65.0334485 180.174651,69.981032 C189.587678,75.4234531 193.450565,89.914909 189.192273,103.13859 C184.296885,118.340703 170.336515,128.587514 149.285449,129.568147 C134.664477,130.249243 124.259992,126.638791 118.386553,119.438781 C117.846487,118.776736 117.349232,118.088589 116.894446,117.376661 L116.894446,117.376661 C107.480003,125.560644 92.1852525,130.632424 76.1277272,131.659985 C44.8331411,133.662607 22.3493583,125.910615 10.0892697,110.372117 C-0.894233485,96.4515697 -2.72846862,77.1258157 4.27771084,57.7264027 C11.21718,38.5117039 26.0929731,21.2661623 45.4215876,10.8580022 C67.0569947,-0.792330019 92.7443391,-3.30457127 119.751783,4.99845993 C129.305836,7.93570969 135.238595,14.1887469 135.722004,21.2042409 C136.204979,28.2134382 131.100009,34.118356 122.582795,35.9420019 C118.463429,36.8240117 115.905107,36.2291781 115.468386,33.3552581 C115.325203,32.4130179 115.501748,31.4308167 115.927348,30.1400158 C116.07502,29.6921426 116.249171,29.2175089 116.494225,28.5832081 C116.557241,28.4200975 116.994664,27.3017115 117.123259,26.9662098 C117.940431,24.8342359 118.370718,23.3587321 118.514114,21.9384059 C118.972694,17.396235 115.97902,14.4170982 106.506937,12.8662996 C88.2173751,9.87187566 72.4696483,14.3934292 60.2773501,25.0795328 C49.3499267,34.6570199 41.828233,48.8522664 39.0524646,64.2899711 C36.3398485,79.3764481 38.4468799,94.193651 44.9945255,104.838875 C52.0924455,116.378741 63.8643909,122.393202 79.5324255,121.344311 C93.5052665,120.408906 102.343827,117.258489 112.43898,110.450946 C112.892519,110.145108 113.321893,109.852325 113.750493,109.555798 C112.833499,105.146661 113.042604,100.300213 114.328845,95.3467086 C119.169887,76.7031375 136.27328,63.6805439 151.148635,70.9399155 C152.772471,71.7323689 152.59624,74.1012467 150.873022,74.6446994 C140.118147,78.0364714 132.457226,90.0559356 132.088051,102.553054 C131.71015,115.34552 138.914501,123.626427 152.126833,122.668323 C162.200971,121.937788 169.244686,112.999603 171.80457,100.172192 C173.93426,89.5004558 171.870474,79.8212909 168.658201,79.8212891 C163.47656,79.8212861 161.46882,82.4777894 164.655312,86.6426197 C170.146431,93.8196597 179.203039,95.5053739 187.847645,91.9302037 C194.508223,89.1755727 199.150741,83.9804438 200.052304,78.4041294 L200.052304,78.4041294 C200.04726,78.3321993 200.042159,78.2601188 200.037001,78.1878856 C199.600369,72.0734056 199.594883,71.948698 199.895927,70.5510253 C200.513965,67.6816274 202.849873,67.0401306 205.711103,68.4267839 C214.00026,72.4440017 215.184281,82.9922991 211.478721,96.9734017 C208.850571,106.889431 203.474842,118.403571 200.962684,120.043045 C199.834949,120.779023 198.401225,120.914859 197.581034,119.349762 C197.200075,118.622811 197.24176,117.995469 197.463921,117.093434 C197.693669,116.16059 198.208196,114.804195 199.059496,112.815878 C199.875609,110.909746 204.235363,101.308098 205.311422,98.8606636 C206.083151,97.1054103 206.784845,95.4715195 207.435272,93.9094214 C208.920929,90.3413927 210.116925,87.1998879 211.02468,84.4252342 C216.829696,66.6815639 230.882176,59.1031746 243.821419,64.2635346 C256.691969,69.3964992 262.115118,84.6245809 254.835339,101.43727 C254.745672,101.644356 254.657435,101.849594 254.570619,102.05299 C257.261804,99.7775621 260.561352,97.2346057 264.616069,94.274916 C268.538676,91.4116578 283.674556,80.7620615 284.037054,80.5039901 C292.535193,74.45396 298.723322,69.7766454 304.064447,65.2367922 C309.372709,60.7248716 313.502111,56.6050762 316.460459,52.7770239 C326.732183,39.485585 329.659523,25.747104 325.821958,18.8724177 C322.73727,13.3464499 316.101235,15.9043052 310.09971,28.3279639 C306.182731,36.4364349 304.374402,49.1554222 301.908085,79.2588268 C301.947028,78.7834973 301.41684,85.2747153 301.268961,87.065034 C301.021735,90.0581284 300.809762,92.5614809 300.598878,94.9603038 C297.89932,125.667962 294.696732,143.831984 288.439097,156.275005 C280.095571,172.865725 266.712073,175.727296 248.037348,162.540405 C242.139338,158.37561 240.255562,153.387276 242.396177,148.017663 C244.153266,143.610105 248.547734,139.116592 255.4378,134.194548 C261.551446,129.827153 268.966828,125.507735 280.429388,119.388259 C282.442923,118.313301 290.425085,114.090944 292.355875,113.059616 C296.809988,110.68046 300.16187,108.8338 303.113949,107.112279 C306.308284,105.249485 308.951345,103.572078 311.056797,102.058904 C311.25338,99.9427518 311.647325,97.7206413 312.248977,95.3960382 C316.537229,78.8275418 331.428261,67.4562809 347.393855,66.0531496 C363.647178,64.6247314 374.271477,74.3085141 370.231084,90.5787016 C366.571255,105.316396 343.258412,107.59417 319.950643,97.4525454 C319.923393,97.4406886 319.896638,97.4284573 319.870375,97.4158638 C319.764195,97.2706457 319.646489,97.1273403 319.516971,96.9861117 C319.35205,96.8062792 319.163427,96.6643748 318.961055,96.5597603 C318.293485,95.2821382 319.21522,93.4137085 320.994137,93.6337581 C321.867737,93.7418211 322.768536,93.8565342 323.762534,93.9858232 C338.856736,95.9491188 340.761063,96.1310825 345.014743,95.6132448 C350.142785,94.9889635 352.879828,92.7670726 354.168887,87.770856 C356.134394,80.1528206 353.137917,75.3497706 348.153587,75.8130117 C342.001325,76.3848 335.332169,84.0260682 331.599709,97.4455971 C327.855684,110.906701 334.806153,119.871106 347.982319,121.629805 C361.182865,123.391758 375.82751,117.118519 383.129123,105.398036 C385.225829,102.032422 387.258157,98.3963598 389.228446,94.520117 C391.954897,89.1562415 394.288708,83.9866336 396.515054,78.4946275 L396.515054,78.4946275 C396.855987,78.5404718 397.194997,78.5842117 397.531966,78.6257893 C399.972502,78.9269191 402.241253,79.1139502 404.322682,79.1707721 C400.215983,101.626614 399.435495,112.454452 401.630999,118.117506 C403.956037,124.114681 411.122025,123.285998 427.54335,114.030164 C432.420452,111.281198 437.571092,103.160825 442.766125,91.0829697 C444.39888,87.2869996 445.957618,83.2975602 447.620659,78.753776 C450.271796,79.04954 452.708423,79.2017562 454.909297,79.1883955 C454.333906,82.8792063 453.487915,88.2659735 453.28113,89.6135006 C452.545163,94.4094587 452.053514,97.9309622 451.698347,101.077985 C450.85199,108.577287 450.858703,113.61184 451.814663,116.91076 C453.686027,123.368646 460.305528,123.320324 476.265497,114.7245 C482.014133,111.628362 487.471553,104.390638 490.77112,96.7631373 C491.916384,94.1156672 492.53769,91.8276685 492.455171,91.4543358 C492.570538,91.9762778 493.042876,92.5481002 493.885721,92.6365786 C494.386241,92.6891211 494.61124,92.584467 494.718862,92.4958821 C494.346012,92.802779 493.660767,93.6709238 492.779713,95.0352062 C490.068478,99.2334613 488.721811,108.48782 490.601795,114.12129 C492.886867,120.968628 499.30556,122.417755 511.557539,115.950065 C513.805478,114.763402 515.713899,117.993855 513.589742,119.390049 C499.248595,128.81639 488.238508,129.737662 481.557775,122.96136 C476.070556,117.395645 474.423212,107.0766 476.557183,96.5136247 C479.256207,83.1536902 483.46998,74.4941709 488.542732,71.0078686 C493.565697,67.5557833 498.858267,69.6240589 501.481002,75.3984379 C503.972822,80.8845834 503.774141,88.7554538 500.60113,96.5900255 C496.873928,105.792965 489.405407,114.407443 478.279338,121.41132 C466.253532,128.981584 451.838092,132.321321 441.606573,129.355051 C429.283183,125.782316 424.347205,114.029647 429.03613,95.4087878 C430.811615,88.3579077 432.647707,82.0365955 434.513887,76.4753384 C432.632113,76.050667 430.828111,75.6070913 429.141411,75.1633265 C428.403139,74.9690898 427.739847,74.7885091 427.161215,74.6261351 C426.811238,74.5279257 426.565419,74.457057 426.433459,74.41808 C424.474535,73.8394746 424.540824,71.042393 426.524958,70.5572352 C426.680164,70.5192844 426.971641,70.4494315 427.386471,70.3522282 C428.074597,70.1909859 428.860157,70.0115186 429.730255,69.8183766 C432.183409,69.2738314 434.814611,68.7294144 437.524947,68.2201749 C440.045526,61.8964547 442.590637,56.9540898 445.087845,53.4654406 C450.308243,46.1724394 456.157621,45.3260308 458.586168,51.9205248 C459.787013,55.1813108 459.947896,60.0593218 459.084681,65.8551633 C459.934376,65.8841817 460.727944,65.9411152 461.462813,66.0272525 C466.656364,66.6360115 469.596828,68.9992952 468.130656,73.1641223 C466.705643,77.2120357 462.372515,78.9985087 455.759177,79.1746476 L455.759177,79.1746476 L455.759177,79.1746476 Z M508.697603,54.9013245 C511.868643,50.1048521 510.80108,45.3528938 504.571868,43.5766633 C498.433985,41.8264747 494.821675,45.0475747 494.591642,50.6191568 C494.412264,54.963836 496.269395,59.991603 498.958348,60.8957122 C501.681523,61.811328 506.208819,58.6658263 508.697603,54.9013245 L508.697603,54.9013245 L508.697603,54.9013245 Z M99.2685445,142.623486 C81.3843714,144.078966 67.1921088,145.752024 57.7532693,147.540894 C52.8083213,148.478071 49.1638226,149.445294 46.8431685,150.464954 C43.6124711,151.884473 41.9734722,154.009117 43.8524467,156.442912 C44.7492852,157.604568 48.4830788,162.582631 49.3001687,163.591505 C50.9474566,165.625437 52.1803643,166.750562 53.677848,167.408573 C56.3864972,168.598784 57.1419671,168.465134 67.4849075,165.735806 C78.5689724,162.810908 88.9141814,160.668092 104.400074,158.548884 C126.050885,155.586021 153.173508,153.506479 187.218506,152.546079 C202.012511,152.128745 216.280111,151.790126 230.030547,151.530588 C230.946337,151.513303 231.733344,150.876117 231.94082,149.983972 L234.24697,140.067526 C234.53946,138.809817 233.581201,137.608702 232.289942,137.61452 C183.872926,137.832675 135.32636,139.688968 99.2685445,142.623486 L99.2685445,142.623486 L99.2685445,142.623486 Z M307.095365,140.260433 L305.184716,148.476292 C304.894049,149.726166 305.838965,150.922514 307.122175,150.929287 C395.218096,151.394327 455.552108,156.405029 489.124369,166.29351 C491.474866,166.985833 492.769743,163.656693 490.569185,162.578873 C461.682409,148.430308 413.229736,141.972828 309.105938,138.714435 C308.152905,138.684612 307.311344,139.331716 307.095365,140.260433 L307.095365,140.260433 L307.095365,140.260433 Z" id="Stroke-1"></path>
        </g>
    </g>
</svg>