<svg width="100" height="100" viewBox="0 0 100 100" fill="none" xmlns="http://www.w3.org/2000/svg">
<path d="M13 66.1125C13 65.5603 13.4477 65.1125 14 65.1125H64.825C65.3773 65.1125 65.825 65.5603 65.825 66.1125V82.1211C65.825 82.6734 65.3773 83.1211 64.825 83.1211H14C13.4477 83.1211 13 82.6734 13 82.1211V66.1125Z" fill="#F73FAE"/>
<path fill-rule="evenodd" clip-rule="evenodd" d="M17.6016 60.3101C17.0493 60.3101 16.6016 60.7578 16.6016 61.3101V63.4819H22.6044V61.3101C22.6044 60.7578 22.1567 60.3101 21.6044 60.3101H17.6016Z" fill="#F73FAE"/>
<path fill-rule="evenodd" clip-rule="evenodd" d="M30.8076 60.3103C30.2553 60.3103 29.8076 60.758 29.8076 61.3103V63.4821H35.8105V61.3103C35.8105 60.758 35.3627 60.3103 34.8105 60.3103H30.8076Z" fill="#F73FAE"/>
<path d="M40.1748 46.4553C40.1748 45.903 40.6225 45.4553 41.1748 45.4553H91.9998C92.5521 45.4553 92.9998 45.903 92.9998 46.4553V62.4638C92.9998 63.0161 92.5521 63.4638 91.9998 63.4638H41.1748C40.6225 63.4638 40.1748 63.0161 40.1748 62.4638V46.4553Z" fill="#F73FAE"/>
<path fill-rule="evenodd" clip-rule="evenodd" d="M71.1885 40.6531C70.6362 40.6531 70.1885 41.1008 70.1885 41.6531V43.8249H76.1913V41.6531C76.1913 41.1008 75.7436 40.6531 75.1913 40.6531H71.1885Z" fill="#F73FAE"/>
<path fill-rule="evenodd" clip-rule="evenodd" d="M84.3955 40.6528C83.8432 40.6528 83.3955 41.1005 83.3955 41.6528V43.8247H89.3983V41.6528C89.3983 41.1005 88.9506 40.6528 88.3983 40.6528H84.3955Z" fill="#F73FAE"/>
<path d="M26.0439 26.8022C26.0439 26.25 26.4917 25.8022 27.0439 25.8022H64.6627C65.215 25.8022 65.6627 26.25 65.6627 26.8022V42.8108C65.6627 43.3631 65.215 43.8108 64.6627 43.8108H27.0439C26.4917 43.8108 26.0439 43.363 26.0439 42.8108V26.8022Z" fill="#F73FAE"/>
<path d="M26.0439 26.8022C26.0439 26.25 26.4917 25.8022 27.0439 25.8022H64.6627C65.215 25.8022 65.6627 26.25 65.6627 26.8022V42.8108C65.6627 43.3631 65.215 43.8108 64.6627 43.8108H27.0439C26.4917 43.8108 26.0439 43.363 26.0439 42.8108V26.8022Z" fill="#F73FAE"/>
<path fill-rule="evenodd" clip-rule="evenodd" d="M30.6465 21C30.0942 21 29.6465 21.4477 29.6465 22V24.1718H35.6493V22C35.6493 21.4477 35.2016 21 34.6493 21H30.6465Z" fill="#F73FAE"/>
<path fill-rule="evenodd" clip-rule="evenodd" d="M43.8516 21C43.2993 21 42.8516 21.4477 42.8516 22V24.1718H48.8544V22C48.8544 21.4477 48.4067 21 47.8544 21H43.8516Z" fill="#F73FAE"/>
<path fill-rule="evenodd" clip-rule="evenodd" d="M57.0576 21C56.5053 21 56.0576 21.4477 56.0576 22V24.1718H62.0605V22C62.0605 21.4477 61.6127 21 61.0605 21H57.0576Z" fill="#F73FAE"/>
<path fill-rule="evenodd" clip-rule="evenodd" d="M14.5 64.0024H65.325C66.7057 64.0024 67.825 65.1217 67.825 66.5024V82.511C67.825 83.8917 66.7057 85.011 65.325 85.011H14.5C13.1193 85.011 12 83.8917 12 82.511V66.5024C12 65.1217 13.1193 64.0024 14.5 64.0024ZM14.5 65.5024C13.9477 65.5024 13.5 65.9502 13.5 66.5024V82.511C13.5 83.0632 13.9477 83.511 14.5 83.511H65.325C65.8773 83.511 66.325 83.0632 66.325 82.511V66.5024C66.325 65.9502 65.8773 65.5024 65.325 65.5024H14.5Z" fill="black"/>
<path fill-rule="evenodd" clip-rule="evenodd" d="M15.6016 65.372V61.7002C15.6016 60.3195 16.7208 59.2002 18.1016 59.2002H22.1044C23.4851 59.2002 24.6044 60.3195 24.6044 61.7002V65.372H15.6016ZM23.1044 61.7002C23.1044 61.1479 22.6567 60.7002 22.1044 60.7002H18.1016C17.5493 60.7002 17.1016 61.1479 17.1016 61.7002V63.872H23.1044V61.7002Z" fill="black"/>
<path fill-rule="evenodd" clip-rule="evenodd" d="M28.8076 65.372V61.7002C28.8076 60.3195 29.9269 59.2002 31.3076 59.2002H35.3105C36.6912 59.2002 37.8105 60.3195 37.8105 61.7002V65.372H28.8076ZM36.3105 61.7002C36.3105 61.1479 35.8627 60.7002 35.3105 60.7002H31.3076C30.7553 60.7002 30.3076 61.1479 30.3076 61.7002V63.872H36.3105V61.7002Z" fill="black"/>
<path fill-rule="evenodd" clip-rule="evenodd" d="M41.6748 44.4553H92.4998C93.8805 44.4553 94.9998 45.5746 94.9998 46.9553V62.9638C94.9998 64.3446 93.8805 65.4638 92.4998 65.4638H41.6748C40.2941 65.4638 39.1748 64.3446 39.1748 62.9638V46.9553C39.1748 45.5746 40.2941 44.4553 41.6748 44.4553ZM41.6748 45.9553C41.1225 45.9553 40.6748 46.403 40.6748 46.9553V62.9638C40.6748 63.5161 41.1225 63.9638 41.6748 63.9638H92.4998C93.0521 63.9638 93.4998 63.5161 93.4998 62.9638V46.9553C93.4998 46.403 93.0521 45.9553 92.4998 45.9553H41.6748Z" fill="black"/>
<path fill-rule="evenodd" clip-rule="evenodd" d="M69.1885 45.8246V42.1528C69.1885 40.7721 70.3078 39.6528 71.6885 39.6528H75.6913C77.072 39.6528 78.1913 40.7721 78.1913 42.1528V45.8246H69.1885ZM76.6913 42.1528C76.6913 41.6005 76.2436 41.1528 75.6913 41.1528H71.6885C71.1362 41.1528 70.6885 41.6005 70.6885 42.1528V44.3246H76.6913V42.1528Z" fill="black"/>
<path fill-rule="evenodd" clip-rule="evenodd" d="M82.3955 45.8247V42.1528C82.3955 40.7721 83.5148 39.6528 84.8955 39.6528H88.8983C90.2791 39.6528 91.3983 40.7721 91.3983 42.1528V45.8247H82.3955ZM89.8983 42.1528C89.8983 41.6005 89.4506 41.1528 88.8983 41.1528H84.8955C84.3432 41.1528 83.8955 41.6005 83.8955 42.1528V44.3247H89.8983V42.1528Z" fill="black"/>
<path fill-rule="evenodd" clip-rule="evenodd" d="M27.5439 24.8022H65.1627C66.5434 24.8022 67.6627 25.9215 67.6627 27.3022V43.3108C67.6627 44.6915 66.5434 45.8108 65.1627 45.8108H27.5439C26.1632 45.8108 25.0439 44.6915 25.0439 43.3108V27.3022C25.0439 25.9215 26.1632 24.8022 27.5439 24.8022ZM27.5439 26.3022C26.9917 26.3022 26.5439 26.75 26.5439 27.3022V43.3108C26.5439 43.863 26.9917 44.3108 27.5439 44.3108H65.1627C65.715 44.3108 66.1627 43.863 66.1627 43.3108V27.3022C66.1627 26.75 65.715 26.3022 65.1627 26.3022H27.5439Z" fill="black"/>
<path fill-rule="evenodd" clip-rule="evenodd" d="M27.5439 24.8022H65.1627C66.5434 24.8022 67.6627 25.9215 67.6627 27.3022V43.3108C67.6627 44.6915 66.5434 45.8108 65.1627 45.8108H27.5439C26.1632 45.8108 25.0439 44.6915 25.0439 43.3108V27.3022C25.0439 25.9215 26.1632 24.8022 27.5439 24.8022ZM27.5439 26.3022C26.9917 26.3022 26.5439 26.75 26.5439 27.3022V43.3108C26.5439 43.863 26.9917 44.3108 27.5439 44.3108H65.1627C65.715 44.3108 66.1627 43.863 66.1627 43.3108V27.3022C66.1627 26.75 65.715 26.3022 65.1627 26.3022H27.5439Z" fill="black"/>
<path fill-rule="evenodd" clip-rule="evenodd" d="M28.6465 26.1718V22.5C28.6465 21.1193 29.7658 20 31.1465 20H35.1493C36.53 20 37.6493 21.1193 37.6493 22.5V26.1718H28.6465ZM36.1493 22.5C36.1493 21.9477 35.7016 21.5 35.1493 21.5H31.1465C30.5942 21.5 30.1465 21.9477 30.1465 22.5V24.6718H36.1493V22.5Z" fill="black"/>
<path fill-rule="evenodd" clip-rule="evenodd" d="M41.8516 26.1718V22.5C41.8516 21.1193 42.9709 20 44.3516 20H48.3544C49.7351 20 50.8544 21.1193 50.8544 22.5V26.1718H41.8516ZM49.3544 22.5C49.3544 21.9477 48.9067 21.5 48.3544 21.5H44.3516C43.7993 21.5 43.3516 21.9477 43.3516 22.5V24.6718H49.3544V22.5Z" fill="black"/>
<path fill-rule="evenodd" clip-rule="evenodd" d="M55.0586 26.1719V22.5C55.0586 21.1193 56.1779 20 57.5586 20H61.5614C62.9421 20 64.0614 21.1193 64.0614 22.5V26.1719H55.0586ZM62.5614 22.5C62.5614 21.9477 62.1137 21.5 61.5614 21.5H57.5586C57.0063 21.5 56.5586 21.9477 56.5586 22.5V24.6719H62.5614V22.5Z" fill="black"/>
</svg>
