<svg width="100" height="100" viewBox="0 0 100 100" fill="none" xmlns="http://www.w3.org/2000/svg">
<path d="M16.8825 47.5949C18.2073 43.5489 22.5611 41.343 26.6071 42.6678L60.4185 53.7388C64.4645 55.0636 66.6704 59.4174 65.3456 63.4633V63.4633C64.0209 67.5093 59.667 69.7152 55.6211 68.3904L21.8096 57.3194C17.7637 55.9946 15.5578 51.6408 16.8825 47.5949V47.5949Z" fill="#00C2DB"/>
<path fill-rule="evenodd" clip-rule="evenodd" d="M24.1475 44.3566C25.1497 44.2168 26.1933 44.2732 27.2238 44.5535C29.1884 43.6414 31.1391 42.7924 33.0522 42.0174C37.2513 40.3164 41.1793 39.0087 44.6121 38.165C48.0255 37.3261 49.7055 37.1621 53.0424 37.0938C54.5418 37.0631 56.4612 37.2109 58.0747 37.3772C58.1528 37.3853 58.1898 37.4116 58.2093 37.4306C58.2329 37.4536 58.2532 37.489 58.261 37.5344C58.2689 37.58 58.2623 37.6242 58.2452 37.6601C58.2304 37.6911 58.2004 37.7322 58.1286 37.7685L37.875 48.0304L39.891 48.6905L58.8066 39.1066C60.3077 38.346 59.9847 36.0661 58.2284 35.8851C56.6021 35.7175 54.6073 35.5615 53.0117 35.5941C49.5836 35.6643 47.7918 35.8389 44.2541 36.7084C40.7356 37.5731 36.7378 38.906 32.4891 40.6271C29.7588 41.7331 26.956 42.9868 24.1475 44.3566Z" fill="black"/>
<path fill-rule="evenodd" clip-rule="evenodd" d="M42.439 41.1056C42.326 40.7071 42.5574 40.2924 42.9559 40.1794L47.7964 38.8063C48.1949 38.6933 48.6096 38.9247 48.7226 39.3232C48.8356 39.7217 48.6042 40.1364 48.2057 40.2494L43.3652 41.6224C42.9668 41.7355 42.5521 41.5041 42.439 41.1056Z" fill="black"/>
<path fill-rule="evenodd" clip-rule="evenodd" d="M33.7919 24.5946C33.9661 23.5474 33.1336 22.4799 31.9423 22.6749C30.7716 22.8665 28.8912 23.3662 27.5707 24.7223C25.5804 26.7664 24.6525 27.9158 23.316 30.4257C21.9915 32.913 20.8113 35.9011 19.837 39.2156C19.1301 41.6208 18.5402 44.1687 18.0831 46.7816C17.9861 47.3362 18.0207 47.8778 18.1626 48.3789C18.6253 48.1485 19.0877 47.9205 19.5496 47.695C19.5195 47.4827 19.5218 47.2625 19.5607 47.0401C20.0087 44.4791 20.5861 41.9863 21.2762 39.6386C22.2282 36.3996 23.3731 33.5099 24.64 31.1307C25.8949 28.774 26.7288 27.7371 28.6454 25.7687C29.6241 24.7636 31.1086 24.3313 32.1845 24.1552C32.2136 24.1504 32.2296 24.1544 32.238 24.1574C32.2479 24.161 32.2603 24.1681 32.2731 24.1821C32.2991 24.2105 32.3257 24.2669 32.3122 24.3483L31.1601 31.2706C30.9994 31.2273 30.8346 31.1935 30.666 31.1699C30.0543 31.0842 29.491 31.1583 28.991 31.3909C28.4949 31.6217 28.108 31.9866 27.8091 32.4112C27.2257 33.24 26.9311 34.362 26.778 35.4545C26.6256 36.542 26.6076 37.6355 26.9721 38.5248C27.1608 38.9851 27.453 39.3935 27.875 39.7066C28.2942 40.0175 28.8038 40.2067 29.3883 40.2886C29.4773 40.3011 29.5661 40.3105 29.6546 40.3171L29.444 41.5822L29.4435 41.585L29.1594 43.3337C29.7065 43.105 30.2495 42.8817 30.7879 42.6638L30.9237 41.8284L30.9241 41.8256L31.2866 39.6474L31.4618 38.595L30.4122 38.7865C30.1483 38.8346 29.8745 38.8421 29.5965 38.8031C29.2081 38.7487 28.9479 38.6348 28.7687 38.5019C28.5925 38.3711 28.4581 38.195 28.3601 37.956C28.1514 37.4468 28.1205 36.683 28.2635 35.6627C28.4058 34.6473 28.6588 33.81 29.0357 33.2746C29.217 33.0171 29.4133 32.8488 29.6237 32.7509C29.8303 32.6548 30.0967 32.6048 30.4579 32.6554C30.7891 32.7018 31.0969 32.8099 31.3745 32.9684L32.3094 33.502L32.4861 32.4401L33.7919 24.5946Z" fill="black"/>
<path fill-rule="evenodd" clip-rule="evenodd" d="M22.4664 42.4469C22.0707 42.3242 21.8494 41.9041 21.972 41.5085L23.4613 36.7025C23.5839 36.3068 24.004 36.0855 24.3997 36.2081C24.7953 36.3307 25.0167 36.7508 24.8941 37.1465L23.4048 41.9525C23.2822 42.3481 22.862 42.5695 22.4664 42.4469Z" fill="black"/>
<path fill-rule="evenodd" clip-rule="evenodd" d="M68.8025 62.2084C69.0064 63.7904 70.4622 64.9028 72.0383 64.7C73.6061 64.4983 74.71 63.0715 74.5115 61.5033L73.1166 50.4862L73.1165 50.4858L72.7259 47.3849C72.3 47.9269 71.865 48.4764 71.4216 49.0327L71.6271 50.6641L71.6271 50.6646L73.0221 61.6821C73.1172 62.4334 72.5884 63.1169 71.8373 63.2136C71.0805 63.3109 70.3882 62.7771 70.2915 62.0263C69.8458 58.5677 69.4591 55.1464 69.1425 51.8595C68.6995 52.4029 68.2509 52.9501 67.7972 53.5002C68.0852 56.3372 68.4225 59.2598 68.8025 62.2084ZM67.3062 48.1692C66.9801 44.199 66.7752 40.561 66.7019 37.4193C66.6183 33.838 66.6952 32.1462 66.9637 28.989C66.9871 28.7137 67.0147 28.4287 67.0456 28.1382C67.1477 27.1763 67.8896 26.6207 68.677 26.6354C69.4538 26.65 70.1854 27.2169 70.3046 28.163L72.1196 42.5716L70.8009 44.1052L68.8151 28.3409C68.8006 28.2256 68.7603 28.1818 68.7431 28.1666C68.7203 28.1463 68.6901 28.1345 68.6582 28.1339C68.6264 28.1333 68.6056 28.1436 68.5938 28.1538L68.5938 28.1539C68.588 28.1589 68.5506 28.1914 68.5385 28.3054C68.5085 28.5872 68.4819 28.8617 68.4596 29.125C68.1952 32.234 68.1205 33.8716 68.2027 37.3938C68.266 40.105 68.4287 43.1984 68.6846 46.5662L67.3062 48.1692Z" fill="black"/>
<path fill-rule="evenodd" clip-rule="evenodd" d="M65.3545 57.5845C67.3163 55.2641 69.2108 52.9712 71.001 50.7498C74.1228 46.8759 76.8686 43.2924 79.0806 40.2041C81.2974 37.1092 82.2416 35.6038 83.8973 32.7411C83.9621 32.6291 84.0273 32.5151 84.0927 32.3995C84.5607 31.5724 84.209 30.7728 83.4726 30.4251C82.7469 30.0824 81.7548 30.2284 81.1264 30.9593L65.5661 49.0544L65.5658 49.0547L60.3374 55.1281L61.9294 55.5532L66.8411 49.8477L66.8414 49.8474L82.402 31.752C82.4817 31.6592 82.5445 31.6414 82.5665 31.6369C82.5966 31.6308 82.6274 31.6345 82.6536 31.6469C82.6795 31.6591 82.6904 31.6745 82.6943 31.6859L82.6944 31.6861C82.6963 31.6914 82.712 31.7359 82.6546 31.8373C82.5912 31.9495 82.5281 32.0597 82.4657 32.1676C80.8306 34.9947 79.9111 36.461 77.7239 39.5147C75.5319 42.575 72.8039 46.1357 69.6947 49.9939C67.9702 52.1339 66.1478 54.3413 64.2609 56.5763C64.6743 56.8695 65.0405 57.2087 65.3545 57.5845Z" fill="black"/>
<path fill-rule="evenodd" clip-rule="evenodd" d="M44.6173 74.0965L43.803 68.6052L46.9207 66.4225L53.8021 68.7194L44.6173 74.0965ZM50.1909 69.0954L47.1622 68.0845L45.4228 69.3023L45.7754 71.6804L50.1909 69.0954Z" fill="black"/>
<path fill-rule="evenodd" clip-rule="evenodd" d="M34.9646 74.7084L35.822 80.4877L34.7476 80.2367L34.9182 79.5063C34.7476 80.2367 34.7478 80.2367 34.7476 80.2367L34.7456 80.2362L34.7422 80.2354L34.7313 80.2328L34.6933 80.2235C34.661 80.2154 34.6151 80.2037 34.557 80.1882C34.441 80.1573 34.2763 80.1113 34.0758 80.0495C33.6758 79.9263 33.1278 79.7386 32.5366 79.4806C31.3949 78.9821 29.9282 78.1521 29.1844 76.8822C28.9736 76.5224 28.8004 76.119 28.6566 75.7077C28.516 75.3054 28.5214 74.8844 28.7079 74.513C28.8895 74.1511 29.2029 73.9165 29.5309 73.797C30.1766 73.5615 30.9849 73.7241 31.5333 74.3262C31.838 74.6609 32.4186 74.8319 33.0872 74.874C33.3986 74.8936 33.6856 74.8825 33.8957 74.8662C33.9999 74.858 34.0832 74.8487 34.1388 74.8418C34.1665 74.8383 34.1872 74.8354 34.1999 74.8335L34.2129 74.8316L34.2139 74.8315L34.9646 74.7084ZM33.6961 76.3796C33.4887 76.3871 33.249 76.3872 32.993 76.371C32.2394 76.3236 31.1421 76.1244 30.4243 75.3362C30.2988 75.1985 30.15 75.1816 30.0682 75.1995C30.0695 75.2036 30.0709 75.208 30.0726 75.2128C30.1951 75.5632 30.3309 75.8719 30.4787 76.124C30.9665 76.9568 32.0431 77.6284 33.1368 78.1059C33.4433 78.2397 33.7384 78.3529 34.0027 78.446L33.6961 76.3796ZM30.0281 75.2137C30.0275 75.2142 30.0271 75.2144 30.0271 75.2144Z" fill="black"/>
<path fill-rule="evenodd" clip-rule="evenodd" d="M42.4617 67.0892C43.8474 66.9145 45.1123 67.8963 45.2869 69.282L45.88 73.9885C46.0547 75.3742 45.0729 76.6391 43.6872 76.8137C42.3015 76.9884 41.0366 76.0066 40.862 74.6209L40.2688 69.9144C40.0942 68.5287 41.0759 67.2638 42.4617 67.0892ZM43.7987 69.4696C43.7276 68.9058 43.213 68.5063 42.6492 68.5774C42.0854 68.6484 41.686 69.1631 41.757 69.7269L42.3502 74.4333C42.4212 74.9971 42.9359 75.3966 43.4997 75.3255C44.0634 75.2545 44.4629 74.7398 44.3918 74.176L43.7987 69.4696Z" fill="black"/>
<path fill-rule="evenodd" clip-rule="evenodd" d="M35.6589 71.8484C37.0446 71.6738 38.3095 72.6556 38.4842 74.0413L39.0773 78.7478C39.2519 80.1335 38.2702 81.3984 36.8845 81.573C35.4988 81.7476 34.2339 80.7659 34.0592 79.3802L33.4661 74.6737C33.2914 73.288 34.2732 72.0231 35.6589 71.8484ZM36.9959 74.2288C36.9249 73.665 36.4103 73.2656 35.8465 73.3367C35.2827 73.4077 34.8833 73.9223 34.9543 74.4861L35.5474 79.1926C35.6185 79.7564 36.1331 80.1558 36.6969 80.0848C37.2607 80.0137 37.6601 79.4991 37.5891 78.9353L36.9959 74.2288Z" fill="black"/>
<path fill-rule="evenodd" clip-rule="evenodd" d="M39.1003 69.441C40.486 69.2663 41.7509 70.2481 41.9256 71.6338L42.5187 76.3403C42.6934 77.726 41.7116 78.9909 40.3259 79.1655C38.9402 79.3402 37.6753 78.3584 37.5006 76.9727L36.9075 72.2662C36.7329 70.8805 37.7146 69.6156 39.1003 69.441ZM40.4374 71.8214C40.3663 71.2576 39.8517 70.8581 39.2879 70.9292C38.7241 71.0002 38.3247 71.5149 38.3957 72.0787L38.9889 76.7851C39.0599 77.3489 39.5745 77.7484 40.1383 77.6773C40.7021 77.6063 41.1015 77.0916 41.0305 76.5278L40.4374 71.8214Z" fill="black"/>
<path fill-rule="evenodd" clip-rule="evenodd" d="M17.1687 49.3616C18.6223 44.922 23.3998 42.5014 27.8394 43.9551L61.6508 55.0261C66.0904 56.4798 68.511 61.2572 67.0573 65.6968C65.6036 70.1364 60.8262 72.557 56.3866 71.1033L22.5752 60.0323C18.1356 58.5786 15.715 53.8012 17.1687 49.3616ZM27.3726 45.3806C23.7203 44.1847 19.7901 46.1761 18.5942 49.8283C17.3983 53.4806 19.3896 57.4109 23.0419 58.6067L56.8534 69.6778C60.5057 70.8737 64.4359 68.8823 65.6318 65.2301C66.8277 61.5778 64.8364 57.6475 61.1841 56.4517L27.3726 45.3806Z" fill="black"/>
</svg>
