<svg width="100" height="100" viewBox="0 0 100 100" fill="none" xmlns="http://www.w3.org/2000/svg">
<path fill-rule="evenodd" clip-rule="evenodd" d="M15 21C15 19.3431 16.3431 18 18 18H79C80.6569 18 82 19.3431 82 21V63.7273C82 65.3841 80.6569 66.7273 79 66.7273H73.5974C73.3357 68.5968 72.6297 70.3913 71.5156 72.0161C70.354 73.7103 68.7714 75.1868 66.8582 76.3614C64.9451 77.536 62.7388 78.3855 60.3654 78.8616C57.992 79.3377 55.4979 79.4309 53.0256 79.136C53.0256 79.136 50.9998 78.8944 51.1633 77.5235C51.3361 76.0755 53.3618 76.3171 53.3618 76.3171C58.1448 76.493 62.2158 73.7657 62.675 69.9155C62.8064 68.8141 62.6289 67.7326 62.1987 66.7273H18C16.3431 66.7273 15 65.3841 15 63.7273V21ZM33.5 47C35.433 47 37 45.433 37 43.5C37 41.567 35.433 40 33.5 40C31.567 40 30 41.567 30 43.5C30 45.433 31.567 47 33.5 47ZM52 43.5C52 45.433 50.433 47 48.5 47C46.567 47 45 45.433 45 43.5C45 41.567 46.567 40 48.5 40C50.433 40 52 41.567 52 43.5ZM63.5 47C65.433 47 67 45.433 67 43.5C67 41.567 65.433 40 63.5 40C61.567 40 60 41.567 60 43.5C60 45.433 61.567 47 63.5 47Z" fill="#FFFA48"/>
<path fill-rule="evenodd" clip-rule="evenodd" d="M55.3618 78.3171C60.1448 78.493 64.2158 75.7657 64.675 71.9155C64.8064 70.8141 64.6289 69.7326 64.1987 68.7273H20C18.3431 68.7273 17 67.3841 17 65.7273V23C17 21.3431 18.3431 20 20 20H81C82.6569 20 84 21.3431 84 23V65.7273C84 67.3841 82.6569 68.7273 81 68.7273H75.5974C75.3357 70.5968 74.6297 72.3913 73.5156 74.0161C72.354 75.7103 70.7714 77.1868 68.8582 78.3614C66.9451 79.536 64.7388 80.3855 62.3654 80.8616C59.992 81.3377 57.4979 81.4309 55.0256 81.136C55.0256 81.136 52.9998 80.8944 53.1633 79.5235C53.3361 78.0755 55.3618 78.3171 55.3618 78.3171ZM76.8368 70.2273H81C83.4853 70.2273 85.5 68.2126 85.5 65.7273V23C85.5 20.5147 83.4853 18.5 81 18.5H20C17.5147 18.5 15.5 20.5147 15.5 23V65.7273C15.5 68.2126 17.5147 70.2273 20 70.2273H63.112C63.2198 70.7241 63.2461 71.2302 63.1856 71.7378C62.853 74.5266 59.7543 76.9601 55.4612 76.8196C55.4559 76.8191 55.4504 76.8187 55.4447 76.8182C55.4244 76.8165 55.4014 76.8147 55.3759 76.813C55.2916 76.8072 55.1777 76.802 55.0428 76.8019C54.7807 76.8019 54.4022 76.8215 53.9933 76.9149C53.5932 77.0063 53.0724 77.189 52.6116 77.5783C52.1156 77.9975 51.7633 78.5962 51.6739 79.3459C51.4757 81.0076 52.7028 81.8713 53.3875 82.1978C53.7585 82.3748 54.117 82.4779 54.3681 82.537C54.4974 82.5674 54.6077 82.5883 54.6895 82.6021C54.707 82.6051 54.7234 82.6077 54.7384 82.6101C54.7586 82.6132 54.7764 82.6159 54.7917 82.6181L54.8259 82.6227L54.8384 82.6243L54.8436 82.625L54.8458 82.6252L54.8469 82.6254C54.8474 82.6254 54.8479 82.6255 55.0211 81.1731L54.8479 82.6255C57.4732 82.9386 60.127 82.8405 62.6604 82.3323C65.1935 81.8242 67.5678 80.9138 69.643 79.6397C71.7186 78.3654 73.4615 76.7476 74.7528 74.8643C75.7366 73.4295 76.4406 71.8659 76.8368 70.2273Z" fill="black"/>
<path fill-rule="evenodd" clip-rule="evenodd" d="M35.5 47.5C36.6046 47.5 37.5 46.6046 37.5 45.5C37.5 44.3954 36.6046 43.5 35.5 43.5C34.3954 43.5 33.5 44.3954 33.5 45.5C33.5 46.6046 34.3954 47.5 35.5 47.5ZM35.5 49C37.433 49 39 47.433 39 45.5C39 43.567 37.433 42 35.5 42C33.567 42 32 43.567 32 45.5C32 47.433 33.567 49 35.5 49Z" fill="black"/>
<path fill-rule="evenodd" clip-rule="evenodd" d="M50.5 47.5C51.6046 47.5 52.5 46.6046 52.5 45.5C52.5 44.3954 51.6046 43.5 50.5 43.5C49.3954 43.5 48.5 44.3954 48.5 45.5C48.5 46.6046 49.3954 47.5 50.5 47.5ZM50.5 49C52.433 49 54 47.433 54 45.5C54 43.567 52.433 42 50.5 42C48.567 42 47 43.567 47 45.5C47 47.433 48.567 49 50.5 49Z" fill="black"/>
<path fill-rule="evenodd" clip-rule="evenodd" d="M65.5 47.5C66.6046 47.5 67.5 46.6046 67.5 45.5C67.5 44.3954 66.6046 43.5 65.5 43.5C64.3954 43.5 63.5 44.3954 63.5 45.5C63.5 46.6046 64.3954 47.5 65.5 47.5ZM65.5 49C67.433 49 69 47.433 69 45.5C69 43.567 67.433 42 65.5 42C63.567 42 62 43.567 62 45.5C62 47.433 63.567 49 65.5 49Z" fill="black"/>
</svg>
